<svg width="35" height="35" viewBox="0 0 35 35" fill="none" xmlns="http://www.w3.org/2000/svg">
<path d="M23.065 19.79C21.8085 19.79 20.79 21.2022 20.79 22.9382C20.79 24.6777 21.8085 26.09 23.065 26.09C24.3215 26.09 25.34 24.6777 25.34 22.9382C25.3383 21.2022 24.3215 19.79 23.065 19.79ZM30.9855 11.5947C31.2463 10.956 31.2568 7.32649 29.8743 3.84924C29.8743 3.84924 26.705 4.19749 21.91 7.48924C20.9038 7.20924 19.201 7.07274 17.5018 7.07274C15.799 7.07274 14.098 7.20924 13.0918 7.48924C8.29502 4.19749 5.12577 3.84924 5.12577 3.84924C3.74502 7.32649 3.75902 10.956 4.01627 11.5947C2.39227 13.3587 1.40002 15.478 1.40002 18.369C1.40002 30.9445 11.8353 31.1457 14.4673 31.1457L17.5018 31.1492L20.5328 31.1457C23.1683 31.1457 33.6 30.9445 33.6 18.369C33.6 15.478 32.6095 13.3587 30.9855 11.5947ZM17.549 29.6005H17.451C10.8518 29.6005 5.71027 28.8147 5.71027 22.3992C5.71027 20.861 6.25277 19.4365 7.54252 18.2535C9.68977 16.2812 13.3263 17.3242 17.451 17.3242H17.549C21.6738 17.3242 25.312 16.2812 27.461 18.2535C28.7473 19.4365 29.2898 20.861 29.2898 22.3992C29.2898 28.8147 24.15 29.6005 17.549 29.6005ZM11.9368 19.79C10.6803 19.79 9.66177 21.2022 9.66177 22.9382C9.66177 24.6777 10.6803 26.09 11.9368 26.09C13.195 26.09 14.2135 24.6777 14.2135 22.9382C14.2135 21.2022 13.195 19.79 11.9368 19.79Z" fill="white"/>
</svg>
