<svg width="35" height="35" viewBox="0 0 35 35" fill="none" xmlns="http://www.w3.org/2000/svg">
<path fill-rule="evenodd" clip-rule="evenodd" d="M10.8865 1.55389C12.5971 1.47514 13.1425 1.45764 17.5 1.45764C21.8575 1.45764 22.403 1.4766 24.1121 1.55389C25.8213 1.63118 26.988 1.90389 28.0088 2.2991C29.0777 2.70306 30.0475 3.33452 30.8496 4.15118C31.6663 4.95181 32.2963 5.92014 32.6988 6.99056C33.0955 8.01139 33.3667 9.17806 33.4455 10.8843C33.5242 12.5978 33.5417 13.1433 33.5417 17.4993C33.5417 21.8568 33.5227 22.4022 33.4455 24.1128C33.3682 25.8191 33.0955 26.9858 32.6988 28.0066C32.2963 29.0772 31.6652 30.0471 30.8496 30.8489C30.0475 31.6656 29.0777 32.2956 28.0088 32.6981C26.988 33.0947 25.8213 33.366 24.115 33.4447C22.403 33.5235 21.8575 33.541 17.5 33.541C13.1425 33.541 12.5971 33.522 10.8865 33.4447C9.18025 33.3674 8.01358 33.0947 6.99275 32.6981C5.92222 32.2955 4.95228 31.6645 4.15046 30.8489C3.33434 30.0478 2.70279 29.0783 2.29983 28.0081C1.90462 26.9872 1.63337 25.8206 1.55462 24.1143C1.47587 22.4008 1.45837 21.8553 1.45837 17.4993C1.45837 13.1418 1.47733 12.5964 1.55462 10.8872C1.63192 9.17806 1.90462 8.01139 2.29983 6.99056C2.70339 5.92026 3.33542 4.95081 4.15192 4.14972C4.9526 3.33379 5.92156 2.70225 6.99129 2.2991C8.01212 1.90389 9.17879 1.63264 10.885 1.55389H10.8865ZM23.9823 4.44139C22.2907 4.3641 21.7832 4.34806 17.5 4.34806C13.2169 4.34806 12.7094 4.3641 11.0177 4.44139C9.45296 4.51285 8.60421 4.77389 8.03837 4.9941C7.29025 5.28577 6.75504 5.63139 6.19358 6.19285C5.66136 6.71063 5.25176 7.34097 4.99483 8.03764C4.77462 8.60347 4.51358 9.45222 4.44212 11.017C4.36483 12.7087 4.34879 13.2162 4.34879 17.4993C4.34879 21.7824 4.36483 22.2899 4.44212 23.9816C4.51358 25.5464 4.77462 26.3951 4.99483 26.961C5.2515 27.6566 5.66129 28.2881 6.19358 28.8058C6.71129 29.3381 7.34275 29.7479 8.03837 30.0045C8.60421 30.2247 9.45296 30.4858 11.0177 30.5572C12.7094 30.6345 13.2155 30.6506 17.5 30.6506C21.7846 30.6506 22.2907 30.6345 23.9823 30.5572C25.5471 30.4858 26.3959 30.2247 26.9617 30.0045C27.7098 29.7128 28.245 29.3672 28.8065 28.8058C29.3388 28.2881 29.7486 27.6566 30.0052 26.961C30.2255 26.3951 30.4865 25.5464 30.558 23.9816C30.6352 22.2899 30.6513 21.7824 30.6513 17.4993C30.6513 13.2162 30.6352 12.7087 30.558 11.017C30.4865 9.45222 30.2255 8.60347 30.0052 8.03764C29.7136 7.28952 29.368 6.75431 28.8065 6.19285C28.2887 5.66066 27.6584 5.25107 26.9617 4.9941C26.3959 4.77389 25.5471 4.51285 23.9823 4.44139ZM15.4511 22.4445C16.5954 22.9209 17.8696 22.9851 19.056 22.6264C20.2424 22.2677 21.2675 21.5081 21.9561 20.4776C22.6448 19.447 22.9543 18.2093 22.8318 16.9759C22.7093 15.7425 22.1623 14.5899 21.2844 13.7149C20.7248 13.1556 20.0481 12.7274 19.303 12.461C18.558 12.1946 17.7632 12.0967 16.9758 12.1744C16.1884 12.252 15.428 12.5033 14.7493 12.9101C14.0707 13.3169 13.4907 13.8691 13.0511 14.527C12.6115 15.1849 12.3232 15.932 12.207 16.7147C12.0909 17.4973 12.1496 18.296 12.3792 19.0532C12.6087 19.8104 13.0032 20.5073 13.5344 21.0937C14.0656 21.6801 14.7202 22.1415 15.4511 22.4445ZM11.6696 11.6689C12.4353 10.9032 13.3443 10.2959 14.3446 9.8815C15.345 9.46713 16.4172 9.25385 17.5 9.25385C18.5828 9.25385 19.6551 9.46713 20.6554 9.8815C21.6558 10.2959 22.5648 10.9032 23.3305 11.6689C24.0961 12.4346 24.7035 13.3435 25.1178 14.3439C25.5322 15.3443 25.7455 16.4165 25.7455 17.4993C25.7455 18.5821 25.5322 19.6543 25.1178 20.6547C24.7035 21.6551 24.0961 22.5641 23.3305 23.3297C21.7841 24.876 19.6869 25.7448 17.5 25.7448C15.3132 25.7448 13.2159 24.876 11.6696 23.3297C10.1233 21.7834 9.25459 19.6861 9.25459 17.4993C9.25459 15.3125 10.1233 13.2152 11.6696 11.6689ZM27.5742 10.4818C27.7639 10.3028 27.9158 10.0876 28.0209 9.84885C28.126 9.61011 28.1821 9.35272 28.1859 9.09191C28.1897 8.83111 28.1411 8.57219 28.043 8.33049C27.945 8.08879 27.7994 7.86922 27.615 7.68478C27.4305 7.50034 27.211 7.35479 26.9693 7.25673C26.7276 7.15867 26.4687 7.11011 26.2078 7.11391C25.947 7.11771 25.6896 7.1738 25.4509 7.27887C25.2122 7.38393 24.9969 7.53582 24.818 7.72556C24.4699 8.09456 24.2793 8.58469 24.2867 9.09191C24.2941 9.59914 24.4989 10.0835 24.8576 10.4422C25.2163 10.8009 25.7006 11.0057 26.2078 11.0131C26.7151 11.0205 27.2052 10.8299 27.5742 10.4818Z" fill="white"/>
</svg>
