<svg width="35" height="35" viewBox="0 0 35 35" fill="none" xmlns="http://www.w3.org/2000/svg">
<path fill-rule="evenodd" clip-rule="evenodd" d="M13.7506 13.079H19.1668V15.7769C19.947 14.2253 21.9479 12.8311 24.9535 12.8311C30.7154 12.8311 32.0833 15.9199 32.0833 21.5869V32.0826H26.25V22.8776C26.25 19.6503 25.4698 17.8303 23.4835 17.8303C20.7287 17.8303 19.5839 19.7917 19.5839 22.8761V32.0826H13.7506V13.079ZM3.74788 31.8346H9.58121V12.8311H3.74788V31.8346ZM10.4168 6.63464C10.4171 7.12359 10.3201 7.60769 10.1316 8.05883C9.94305 8.50997 9.66674 8.91914 9.31871 9.26256C8.61346 9.96347 7.65885 10.3558 6.66454 10.3534C5.67199 10.3527 4.71958 9.96139 4.01329 9.26402C3.66652 8.91943 3.39115 8.5098 3.20296 8.05861C3.01477 7.60741 2.91747 7.12351 2.91663 6.63464C2.91663 5.64735 3.31038 4.70235 4.01475 4.00527C4.72042 3.30696 5.67323 2.91546 6.666 2.91589C7.66058 2.91589 8.61433 3.30819 9.31871 4.00527C10.0216 4.70235 10.4168 5.64735 10.4168 6.63464Z" fill="white"/>
</svg>
