<svg width="60" height="60" viewBox="0 0 60 60" fill="none" xmlns="http://www.w3.org/2000/svg">
<path d="M15.0459 28.8098C14.8116 31.7609 17.4041 33.9345 19.1734 33.9345C20.9452 33.8518 27.8455 28.0369 27.8455 28.0369C31.0909 23.9324 31.105 22.1073 31.105 20.6728C30.8343 14.3396 19.296 23.9857 15.0459 28.8098ZM43.5887 26.3585C45.1549 23.0437 43.0478 19.3621 38.4643 22.5959C34.8221 24.9108 30.1069 29.673 27.8502 31.5373C26.8035 33.6514 29.4568 39.4534 33.6615 36.39C38.6314 32.7792 42.2607 29.3839 43.5887 26.3585ZM47.8543 6.30633L48.8637 0H60V11.5118L55.9187 11.5605L51.0045 28.2052C51.3103 34.0795 48.3314 34.1752 47.9509 36.8706C46.9945 43.6452 39.4185 49.1884 36.522 49.1884C34.5901 49.1324 33.1779 46.9182 32.7035 44.9889C38.1504 38.9643 45.4751 34.2298 45.4751 34.2298C45.9325 31.0614 44.9272 30.0526 48.3078 27.3527L51.5338 10.3912C48.7787 8.57191 47.4932 8.60016 47.8543 6.30633ZM26.1176 34.3962C28.942 40.0873 33.0231 40.2356 39.3504 32.99C39.5007 33.6599 39.6654 34.3617 39.3633 36.0469C26.4919 47.5593 14.3688 58.7637 10.6787 60H0V57.1359C1.73672 54.7275 15.99 42.9714 26.1176 34.3962ZM45.1404 45.4153C44.5609 50.3414 40.0697 54.652 34.0683 60H15.0483L31.0828 46.4936C33.8508 52.793 38.7673 51.8804 45.1405 45.4153H45.1404ZM22.6477 34.234L0 53.5376V41.0138L13.3277 30.1641C14.0407 34.2025 18.4084 37.7585 22.6477 34.2342V34.234Z" fill="white"/>
</svg>
