<svg width="40" height="40" viewBox="0 0 40 40" fill="none" xmlns="http://www.w3.org/2000/svg">
<path d="M20.0195 1.25293C9.66422 1.25293 1.26953 9.64754 1.26953 20.0029C1.26953 30.3583 9.66422 38.7529 20.0195 38.7529C30.3748 38.7529 38.7695 30.3582 38.7695 20.0029C38.7695 9.64762 30.375 1.25293 20.0195 1.25293ZM31.51 31.4934C28.6607 34.334 24.8559 36.0121 20.837 36.2006C16.8181 36.3892 12.8729 35.0747 9.77017 32.5133C6.66746 29.952 4.62951 26.3272 4.0534 22.3453C3.4773 18.3634 4.40431 14.3096 6.65382 10.9739C8.90332 7.63813 12.3142 5.25938 16.2218 4.30111C20.1293 3.34285 24.2537 3.87373 27.7913 5.7903C31.3288 7.70687 34.0261 10.8718 35.3575 14.6685C36.689 18.4652 36.5592 22.6216 34.9935 26.3278C34.1775 28.2588 32.9945 30.0131 31.51 31.4934Z" fill="#000F08"/>
<path d="M18.7217 12.8898L24.5852 18.7534H10.0107V21.2534H24.5852L18.7217 27.117L20.4894 28.8847L29.3707 20.0034L20.4894 11.1221L18.7217 12.8898Z" fill="#000F08"/>
</svg>
