<svg width="1922" height="1215" viewBox="0 0 1922 1215" fill="none" xmlns="http://www.w3.org/2000/svg">
<g clip-path="url(#clip0_931_2)">
<rect width="1922" height="1215" fill="white"/>
<path d="M1922 433.549V1085C1919.74 1083 1917.52 1081.01 1915.26 1079.01C1913.88 1077.79 1912.49 1076.57 1911.1 1075.35C1819.47 995.135 1707.2 935.082 1583.6 900.167C1459.99 865.251 1328.61 856.478 1200.34 874.574C1107.56 887.614 1020.38 907.589 968.25 938.175C576.17 1168.21 131.303 948.997 6.74389 887.703C4.4847 886.617 2.22551 885.502 3.34978e-05 884.357V433.549C3.34978e-05 428.099 0 -0.999704 0 -0.999704C0 -0.999704 17.3435 -1 23.6035 -1L1898.4 -1C1904.66 -1 1922 -1 1922 -1C1922 -1 1922 428.099 1922 433.549Z" fill="#3F3D56"/>
</g>
<defs>
<clipPath id="clip0_931_2">
<rect width="1922" height="1215" fill="white"/>
</clipPath>
</defs>
</svg>
