<svg width="1922" height="1215" viewBox="0 0 1922 1215" fill="none" xmlns="http://www.w3.org/2000/svg">
<g clip-path="url(#clip0_931_4)">
<rect width="1922" height="1215" fill="white"/>
<path d="M0 1192.1V466C2.25919 468.225 4.48458 470.45 6.74377 472.675C8.12424 474.037 9.50962 475.397 10.9 476.756C102.532 566.162 214.8 633.096 338.403 672.013C462.006 710.929 593.387 720.707 721.661 700.538C814.437 686.003 901.616 663.74 953.75 629.649C1345.83 373.26 1790.7 617.587 1915.26 685.904C1917.52 687.115 1919.77 688.358 1922 689.634V1192.1C1922 1198.17 1922 1215 1922 1215C1922 1215 1904.66 1215 1898.4 1215H23.6035C17.3435 1215 4.42651 1219.3 0 1215C-4.42651 1210.7 1.78858e-05 1198.17 0 1192.1Z" fill="#3F3D56"/>
</g>
<defs>
<clipPath id="clip0_931_4">
<rect width="1922" height="1215" fill="white"/>
</clipPath>
</defs>
</svg>
