<svg width="1922" height="1215" viewBox="0 0 1922 1215" fill="none" xmlns="http://www.w3.org/2000/svg">
<g clip-path="url(#clip0_931_4)">
<rect width="1922" height="1215" fill="white"/>
<path d="M-0.0325928 634.323V0C2.22664 1.94368 4.45207 3.88738 6.7113 5.83105C8.0918 7.02098 9.47713 8.2094 10.8676 9.39624C102.501 87.5024 214.771 145.976 338.376 179.974C461.982 213.971 593.364 222.513 721.64 204.893C814.418 192.195 901.599 172.747 953.733 142.965C1345.82 -81.0187 1790.69 132.426 1915.26 192.108C1917.52 193.166 1919.77 194.252 1922 195.367V634.323C1922 639.63 1922 1214.25 1922 1214.25C1922 1214.25 1904.66 1214.25 1898.4 1214.25L23.5713 1215C17.3112 1215 -0.032639 1218 -4.45923 1214.25C-8.88582 1210.49 -0.0325749 639.63 -0.0325928 634.323Z" fill="#3F3D56"/>
</g>
<defs>
<clipPath id="clip0_931_4">
<rect width="1922" height="1215" fill="white"/>
</clipPath>
</defs>
</svg>
