<svg width="1922" height="1215" viewBox="0 0 1922 1215" fill="none" xmlns="http://www.w3.org/2000/svg">
<g clip-path="url(#clip0_931_2)">
<rect width="1922" height="1215" fill="white"/>
<path d="M1922 22.9032V749C1919.74 746.775 1917.52 744.55 1915.26 742.325C1913.88 740.963 1912.49 739.603 1911.1 738.244C1819.47 648.838 1707.2 581.904 1583.6 542.988C1459.99 504.071 1328.61 494.293 1200.34 514.462C1107.56 528.997 1020.38 551.26 968.25 585.351C576.17 841.74 131.303 597.413 6.74389 529.096C4.4847 527.886 2.22551 526.642 3.34978e-05 525.366V22.9032C3.34978e-05 16.8289 0 0.000329375 0 0.000329375C0 0.000329375 17.3435 0 23.6035 0H1898.4C1904.66 0 1922 0 1922 0C1922 0 1922 16.8289 1922 22.9032Z" fill="#3F3D56"/>
</g>
<defs>
<clipPath id="clip0_931_2">
<rect width="1922" height="1215" fill="white"/>
</clipPath>
</defs>
</svg>
