<svg width="22" height="22" viewBox="0 0 22 22" fill="none" xmlns="http://www.w3.org/2000/svg">
<path d="M1.09998 1.09998C1.47503 0.725035 1.98365 0.514404 2.51398 0.514404C3.04431 0.514404 3.55292 0.725035 3.92798 1.09998L11 8.17198L18.072 1.09998C18.4492 0.735661 18.9544 0.534072 19.4788 0.538629C20.0032 0.543186 20.5048 0.753524 20.8756 1.12434C21.2464 1.49516 21.4568 1.99678 21.4613 2.52117C21.4659 3.04557 21.2643 3.55077 20.9 3.92798L13.828 11L20.9 18.072C21.2643 18.4492 21.4659 18.9544 21.4613 19.4788C21.4568 20.0032 21.2464 20.5048 20.8756 20.8756C20.5048 21.2464 20.0032 21.4568 19.4788 21.4613C18.9544 21.4659 18.4492 21.2643 18.072 20.9L11 13.828L3.92798 20.9C3.55077 21.2643 3.04557 21.4659 2.52117 21.4613C1.99678 21.4568 1.49516 21.2464 1.12434 20.8756C0.753524 20.5048 0.543186 20.0032 0.538629 19.4788C0.534072 18.9544 0.735661 18.4492 1.09998 18.072L8.17198 11L1.09998 3.92798C0.725035 3.55292 0.514404 3.04431 0.514404 2.51398C0.514404 1.98365 0.725035 1.47503 1.09998 1.09998V1.09998Z" fill="black"/>
</svg>
