<svg width="699" height="772" viewBox="0 0 699 772" fill="none" xmlns="http://www.w3.org/2000/svg">
<path d="M414.16 604.811L422.831 624.255C415.783 623.133 409.227 629.153 409.08 636.884C408.933 644.615 415.22 652.658 422.269 653.757C420.922 659.759 415.108 662.405 410.062 664.831C405.016 667.257 399.577 671.281 399.952 677.676C400.253 682.812 404.5 687.346 409.01 689.169C413.519 690.992 418.251 690.711 422.818 690.405C415.897 697.645 415.223 711.253 421.301 721.016C427.379 730.779 439.517 735.585 448.606 731.827C442.184 739.816 443.58 754.445 451.549 762.69C459.584 771 471.227 771.805 481.407 770.929C507.328 768.738 532.028 758.949 552.413 742.789C560.195 736.606 567.464 729.334 571.903 719.848C576.342 710.362 577.65 698.352 573.515 687.558C574.63 701.08 588.165 711.76 600.341 712.358C612.517 712.956 623.148 706.097 632.182 698.277C644.196 687.876 655.319 673.298 653.67 655.31C652.854 646.405 648.964 637.841 645.149 629.545L637.754 613.462C634.768 606.969 631.715 600.367 627.221 594.918C622.727 589.47 616.49 585.252 610.248 585.292C611.675 578.772 613.108 572.009 611.913 565.081C610.717 558.153 606.137 550.98 599.908 549.358C591.981 547.293 585.264 554.609 577.293 553.919C569.622 553.255 563.282 545.557 555.834 542.507C552.767 541.18 549.38 540.777 546.087 541.347C542.795 541.916 539.74 543.433 537.297 545.713C532.575 550.323 530.606 558.111 532.301 565.48C533.785 571.936 537.735 577.629 540.133 583.855C542.531 590.081 542.903 598.086 538.298 601.486C532.741 605.589 524.284 600.006 519.942 593.251C515.601 586.497 513.108 578.318 507.619 572.637C501.139 565.933 490.997 564.362 484.326 569.029C477.655 573.696 475.104 584.148 478.467 593.033C481.217 600.297 487.516 607.646 485.331 614.487C483.022 621.717 472.919 620.801 466.824 615.692C460.73 610.582 456.683 602.886 450.663 597.662C444.549 592.356 436.565 590.031 429.556 591.516C426 592.341 422.71 594.048 419.988 596.48C417.266 598.912 415.201 601.99 413.983 605.431" fill="#E6E6E6"/>
<path d="M554.556 550.17L536.563 558.529C533.859 559.865 530.791 560.279 527.829 559.707C525.217 559.089 523.452 557.492 522.988 555.324L518.802 535.769C518.011 532.081 521.066 527.716 526.065 525.393L536.002 520.777C541.001 518.454 546.307 518.934 548.616 521.917L560.861 537.728C562.219 539.481 562.301 541.86 561.088 544.254C559.615 546.887 557.321 548.964 554.556 550.17Z" fill="#3F3D56"/>
<path d="M421.043 280.344C410.108 285.435 409.927 308.239 413.356 315.627L419.57 329.002L459.18 310.599L452.966 297.224C449.53 289.839 431.986 275.27 421.043 280.344Z" fill="#3F3D56"/>
<path d="M314.602 472.36C313.905 472.36 313.219 472.191 312.601 471.869C311.982 471.547 311.451 471.081 311.052 470.51C310.652 469.939 310.397 469.28 310.306 468.589C310.216 467.898 310.293 467.195 310.533 466.54C310.726 466.005 311.024 465.514 311.409 465.095C311.795 464.676 312.259 464.338 312.776 464.1L517.329 369.062C517.845 368.822 518.403 368.686 518.971 368.662C519.539 368.638 520.107 368.726 520.641 368.921C521.175 369.116 521.665 369.415 522.084 369.799C522.503 370.184 522.842 370.648 523.081 371.163C523.564 372.205 523.613 373.396 523.219 374.474C522.825 375.552 522.019 376.43 520.979 376.915H520.978L316.425 471.953C315.854 472.22 315.232 472.359 314.602 472.36Z" fill="#3F3D56"/>
<path d="M474.608 319.128L416.137 346.294L507.858 543.708L566.329 516.541L474.608 319.128Z" fill="#E6E6E6"/>
<path d="M255.115 70.6175C244.18 75.7086 244 98.5125 247.429 105.901L253.643 119.276L293.252 100.873L287.038 87.4984C283.602 80.1126 266.058 65.5436 255.115 70.6175Z" fill="#3F3D56"/>
<path d="M500.128 572.864L482.136 581.224C479.431 582.559 476.363 582.973 473.402 582.401C470.79 581.783 469.025 580.186 468.561 578.018L464.374 558.464C463.584 554.775 466.639 550.411 471.638 548.088L481.574 543.471C486.574 541.148 491.879 541.628 494.189 544.611L506.433 560.422C507.791 562.175 507.873 564.554 506.661 566.949C505.188 569.581 502.893 571.658 500.128 572.864Z" fill="#3F3D56"/>
<path d="M444.81 600.31L426.817 608.669C424.113 610.005 421.045 610.419 418.083 609.847C415.471 609.229 413.706 607.632 413.242 605.464L409.056 585.909C408.265 582.221 411.32 577.856 416.319 575.534L426.256 570.917C431.255 568.594 436.561 569.074 438.87 572.057L451.115 587.868C452.473 589.621 452.555 592 451.342 594.394C449.869 597.027 447.575 599.104 444.81 600.31Z" fill="#3F3D56"/>
<path d="M324.282 142.982L265.811 170.148L451.214 569.197L509.685 542.03L324.282 142.982Z" fill="#E6E6E6"/>
<path d="M384.952 348.691L378.391 334.254L382.168 332.512L388.709 346.903L483.424 556.909L479.651 558.662" fill="#3F3D56"/>
<path d="M458.952 336.691L452.391 322.254L456.168 320.512L462.709 334.903L557.424 544.909L553.651 546.662" fill="#3F3D56"/>
<path d="M351.881 174.917L272.656 211.726C267.612 203.879 252.406 163.666 255.821 151.735L253.258 140.357L307.961 114.941L315.284 123.949C326.153 127.284 347.312 165.055 351.881 174.917Z" fill="#E6E6E6"/>
<path d="M310.245 115.428L253.794 141.656C251.71 142.624 249.491 142.268 248.837 140.861C248.744 140.658 248.685 140.441 248.665 140.218L245.744 109.05C245.619 107.716 246.76 106.203 248.505 105.393L285.942 87.9994C287.686 87.1889 289.578 87.2917 290.518 88.248L312.453 110.582C313.575 111.724 312.966 113.679 311.093 114.949C310.823 115.131 310.54 115.291 310.245 115.428Z" fill="#E6E6E6"/>
<path d="M354.522 359.617C353.911 359.619 353.302 359.547 352.708 359.404C351.871 359.23 351.084 358.867 350.409 358.343C349.734 357.818 349.187 357.146 348.812 356.378L314.299 282.095C312.871 279.02 314.788 275.088 318.573 273.329L369.109 249.849C372.895 248.089 377.137 249.161 378.566 252.236L413.079 326.519C413.424 327.302 413.585 328.153 413.55 329.007C413.515 329.861 413.285 330.696 412.878 331.448C411.992 333.15 410.556 334.503 408.804 335.286L358.268 358.765C357.096 359.318 355.818 359.609 354.522 359.617Z" fill="#3F3D56"/>
<path d="M361.434 370.861L302.963 398.028L394.684 595.441L453.155 568.275L361.434 370.861Z" fill="#E6E6E6"/>
<path d="M289.398 118.685L272.251 126.651C268.942 128.189 264.478 125.627 262.301 120.942C260.124 116.256 261.045 111.193 264.354 109.655L281.501 101.689C284.81 100.151 289.274 102.713 291.451 107.398C293.628 112.084 292.707 117.147 289.398 118.685Z" fill="#3F3D56"/>
<path d="M309.01 331.547C298.074 336.638 297.894 359.442 301.323 366.831L307.537 380.205L347.146 361.802L340.933 348.428C337.497 341.042 319.953 326.473 309.01 331.547Z" fill="#3F3D56"/>
<path d="M127.361 286.028C123.499 288.601 119.546 282.477 123.482 280.018C127.344 277.445 131.297 283.569 127.361 286.028Z" fill="#E6E6E6"/>
<path d="M529.361 198.028C525.499 200.601 521.546 194.477 525.482 192.018C529.344 189.445 533.297 195.569 529.361 198.028Z" fill="#E6E6E6"/>
<path d="M255.361 268.028C251.499 270.601 247.546 264.477 251.482 262.018C255.344 259.445 259.297 265.569 255.361 268.028Z" fill="#E6E6E6"/>
<path d="M127.361 508.028C123.499 510.601 119.546 504.477 123.482 502.018C127.344 499.445 131.297 505.569 127.361 508.028Z" fill="#E6E6E6"/>
<path d="M324.361 7.02811C320.499 9.6013 316.546 3.47687 320.482 1.01793C324.344 -1.55512 328.297 4.56932 324.361 7.02811Z" fill="#E6E6E6"/>
<path d="M134.361 125.028C130.499 127.601 126.546 121.477 130.482 119.018C134.344 116.445 138.297 122.569 134.361 125.028Z" fill="#E6E6E6"/>
<path d="M407.639 91.1998L405.182 90.6608L405.72 88.2028L404.082 87.8438L403.543 90.3018L401.086 89.7638L400.727 91.4017L403.184 91.9408L402.646 94.3978L404.284 94.7568L404.823 92.2988L407.28 92.8378L407.639 91.1998Z" fill="#E6E6E6"/>
<path d="M7.54192 295.978L5.08492 295.439L5.62291 292.982L3.98491 292.623L3.44591 295.08L0.987915 294.542L0.628906 296.18L3.08691 296.719L2.5489 299.177L4.1869 299.535L4.72591 297.078L7.18291 297.616L7.54192 295.978Z" fill="#E6E6E6"/>
<path d="M511.428 400.436C509.383 401.383 507.046 401.481 504.929 400.707C502.813 399.933 501.09 398.352 500.138 396.309L490.025 374.544C489.079 372.5 488.982 370.163 489.757 368.048C490.531 365.933 492.114 364.212 494.157 363.263C496.2 362.314 498.536 362.215 500.652 362.987C502.768 363.759 504.491 365.339 505.442 367.381L515.555 389.146C516.502 391.191 516.6 393.528 515.826 395.644C515.052 397.761 513.47 399.484 511.428 400.436Z" fill="#3F3D56"/>
<path d="M339.428 480.436C337.383 481.383 335.046 481.481 332.929 480.707C330.813 479.933 329.09 478.352 328.138 476.309L318.025 454.544C317.079 452.5 316.982 450.164 317.757 448.048C318.531 445.933 320.114 444.212 322.157 443.263C324.2 442.314 326.536 442.214 328.652 442.987C330.768 443.759 332.491 445.339 333.442 447.381L343.555 469.146C344.502 471.191 344.6 473.528 343.826 475.644C343.052 477.761 341.47 479.484 339.428 480.436Z" fill="#3F3D56"/>
<path d="M495.852 352.881L428.047 384.385C423.73 377.669 410.716 343.252 413.638 333.041L415.072 321.618L455.558 301.755L464.53 309.26C477.17 304.986 495.75 336.308 495.852 352.881Z" fill="#E6E6E6"/>
<path d="M464.372 350.697L447.225 358.664C443.916 360.201 438.882 356.411 436.004 350.217C433.125 344.022 433.476 337.73 436.785 336.193L453.932 328.226C457.241 326.689 462.275 330.479 465.153 336.673C468.031 342.868 467.681 349.16 464.372 350.697Z" fill="#3F3D56"/>
<path d="M318.952 391.691L312.391 377.254L316.168 375.512L322.709 389.903L417.424 599.909L413.651 601.662" fill="#3F3D56"/>
<path d="M383.817 404.085L316.011 435.588C306.008 430.423 290.72 396.627 301.602 384.244L303.037 372.821L343.523 352.958L352.494 360.463C361.796 363.317 379.906 395.644 383.817 404.085Z" fill="#E6E6E6"/>
<path d="M350.941 398.897L333.794 406.863C330.485 408.401 325.763 405.285 323.27 399.918C320.776 394.551 321.44 388.933 324.749 387.396L341.896 379.429C345.205 377.892 349.926 381.008 352.42 386.375C354.913 391.741 354.25 397.359 350.941 398.897Z" fill="#3F3D56"/>
<path opacity="0.3" d="M429.606 257.124L492.199 74.3149L423.468 254.936C423.128 255.364 422.895 255.868 422.788 256.405C422.682 256.941 422.705 257.496 422.856 258.022C423.006 258.548 423.28 259.03 423.655 259.429C424.029 259.828 424.493 260.132 425.009 260.316C425.524 260.499 426.076 260.558 426.618 260.485C427.16 260.413 427.678 260.213 428.127 259.901C428.577 259.589 428.945 259.174 429.202 258.691C429.459 258.208 429.598 257.671 429.606 257.124H429.606Z" fill="#F0F0F0"/>
<path d="M619.425 330.839C625.336 330.839 630.127 326.047 630.127 320.136C630.127 314.226 625.336 309.434 619.425 309.434C613.514 309.434 608.723 314.226 608.723 320.136C608.723 326.047 613.514 330.839 619.425 330.839Z" fill="#FF6584"/>
<path d="M687.425 620.839C693.336 620.839 698.127 616.047 698.127 610.136C698.127 604.226 693.336 599.434 687.425 599.434C681.514 599.434 676.723 604.226 676.723 610.136C676.723 616.047 681.514 620.839 687.425 620.839Z" fill="#F2F2F2"/>
<path d="M322.425 686.002C333.949 686.002 343.291 676.66 343.291 665.136C343.291 653.612 333.949 644.27 322.425 644.27C310.901 644.27 301.559 653.612 301.559 665.136C301.559 676.66 310.901 686.002 322.425 686.002Z" fill="#F2F2F2"/>
<path d="M163.425 409.839C169.336 409.839 174.127 405.047 174.127 399.136C174.127 393.226 169.336 388.434 163.425 388.434C157.514 388.434 152.723 393.226 152.723 399.136C152.723 405.047 157.514 409.839 163.425 409.839Z" fill="#3F3D56"/>
<path d="M523.227 423.768L569.403 435.721L597.724 491.349L549.844 493.227L523.227 423.768Z" fill="#E6E6E6"/>
<path d="M416.645 343.574L442.059 369.002L506.606 508.557L494.721 518.824L416.645 343.574Z" fill="#CCCCCC"/>
<path d="M361.387 366.624L363.381 402.52L424.305 543.694L439.881 541.688L361.387 366.624Z" fill="#CCCCCC"/>
<path d="M359.723 511.637L334.854 552.339L353.187 612.008L388.9 580.061L359.723 511.637Z" fill="#E6E6E6"/>
</svg>
