<svg width="765" height="1168" viewBox="0 0 765 1168" fill="none" xmlns="http://www.w3.org/2000/svg">
<g clip-path="url(#clip0_818_3)">
<path d="M676.1 257.75C664.2 354.07 602.02 439.46 522.42 494.98C515.96 499.49 509.34 503.817 502.56 507.96C501.71 508.48 500.86 509 500.01 509.51C452.71 537.89 398.52 556.07 344.08 550.4C299.85 545.8 256.42 522.27 230.5 487.12C230.01 486.46 229.52 485.78 229.05 485.11C218.491 470.466 211.331 453.651 208.09 435.89C203.43 409.6 207.05 380.53 192.57 358.1C173.79 329 133.57 324.26 98.96 325.35C66.61 326.36 34.31 329.86 2 331.68C1.34 331.72 0.669997 331.75 -2.98023e-06 331.79V22.69C0.00724022 16.6745 -4.25412 4.25362 -0.000488281 -7.62939e-06C4.25314 -4.25364 16.6745 0.00724224 22.69 -9.53674e-07H163.42C171 -9.53674e-07 176.209 -0.450001 183 -9.53674e-07C185.94 0.199999 195.066 -0.120001 198 -9.53674e-07C213.5 -9.53674e-07 219 -9.53674e-07 234.5 -9.53674e-07C243.5 -9.53674e-07 256.5 -9.53674e-07 265.84 -9.53674e-07H525.7C527.64 0.639999 529.56 1.31 531.48 2C539.753 4.98126 547.835 8.46783 555.68 12.44C642.24 56.33 688 161.43 676.1 257.75Z" fill="#3F3D56"/>
<path d="M567.39 129.14C527.1 166.64 473.73 190.7 418.91 196.47C413.53 197.04 408.137 197.43 402.73 197.64C401.53 197.69 400.33 197.72 399.12 197.75C397.16 197.8 395.19 197.82 393.23 197.82C390.88 197.82 388.53 197.787 386.18 197.72C372.577 197.323 359.027 195.842 345.66 193.29C345.17 193.19 344.69 193.1 344.2 193C342.09 192.59 339.987 192.15 337.89 191.68C333.87 190.79 329.87 189.803 325.89 188.72C324.6 188.37 323.31 188.01 322.02 187.63C320.17 187.1 318.33 186.54 316.49 185.97C315.8 185.75 315.11 185.54 314.42 185.31C313.72 185.09 313.02 184.86 312.32 184.62C308.05 183.22 303.817 181.7 299.62 180.06C275.719 170.826 253.345 158.046 233.25 142.15C230.47 139.94 227.65 137.62 224.93 135.37C210.31 123.31 195.19 110.84 176.76 108.12C156.86 105.19 137.74 114.25 119.26 123.01C112.99 125.98 106.51 129.05 100.1 131.62C68.8091 143.946 34.324 145.594 2 136.31C1.33 136.13 0.66 135.93 0 135.73V133.64C0.66 133.84 1.33 134.04 2 134.23C34.0531 143.561 68.2968 141.989 99.36 129.76C105.71 127.22 112.17 124.16 118.41 121.2C137.16 112.31 156.55 103.12 177.05 106.14C196.03 108.94 211.37 121.59 226.2 133.83C228.92 136.07 231.73 138.39 234.49 140.59C254.452 156.385 276.682 169.077 300.43 178.24H300.44C304.46 179.8 308.53 181.27 312.62 182.63C313.21 182.82 313.8 183.01 314.39 183.21C315.05 183.42 315.72 183.63 316.38 183.84C318.07 184.38 319.763 184.893 321.46 185.38C323.12 185.88 324.79 186.353 326.47 186.8H326.48C330.78 187.97 335.107 189.027 339.46 189.97C341.43 190.41 343.4 190.81 345.39 191.19C345.82 191.28 346.26 191.36 346.7 191.44C359.524 193.86 372.516 195.284 385.56 195.7H385.57C390.1 195.84 394.623 195.857 399.14 195.75C400.32 195.72 401.49 195.68 402.66 195.64C407.77 195.44 412.873 195.08 417.97 194.56H417.98C472.63 188.97 525.87 165.05 566.03 127.67C566.225 127.491 566.483 127.396 566.748 127.407C567.013 127.418 567.262 127.533 567.442 127.728C567.622 127.922 567.717 128.18 567.708 128.445C567.698 128.709 567.584 128.959 567.39 129.14H567.39Z" fill="#6C63FF"/>
<path d="M0.309998 90.94C0.248443 91.1959 0.143603 91.4394 0 91.66V88.87C0.365156 89.4946 0.476145 90.2358 0.309998 90.94V90.94Z" fill="#FF6584"/>
<path d="M8.20081 101.532C8.40146 99.7363 7.55146 98.1674 6.30228 98.0279C5.05311 97.8883 3.87779 99.2308 3.67715 101.027C3.4765 102.822 4.3265 104.391 5.57568 104.531C6.82485 104.67 8.00017 103.328 8.20081 101.532Z" fill="#E6E6E6"/>
<path d="M10.9837 122.74C11.1844 120.944 10.3344 119.375 9.08518 119.236C7.836 119.096 6.66069 120.439 6.46004 122.234C6.2594 124.03 7.1094 125.599 8.35857 125.738C9.60775 125.878 10.7831 124.536 10.9837 122.74Z" fill="#3F3D56"/>
<path d="M504.961 291.866C505.449 289.938 503.599 287.806 500.827 287.103C498.056 286.401 495.413 287.395 494.925 289.323C494.436 291.25 496.287 293.383 499.058 294.085C501.829 294.787 504.472 293.794 504.961 291.866Z" fill="white"/>
<path d="M471.117 291.648C471.605 289.72 469.755 287.588 466.984 286.885C464.212 286.183 461.57 287.176 461.081 289.104C460.592 291.032 462.443 293.164 465.214 293.867C467.986 294.569 470.628 293.576 471.117 291.648Z" fill="#3F3D56"/>
<path d="M511.311 319.944C511.8 318.016 509.95 315.884 507.178 315.182C504.407 314.48 501.764 315.473 501.276 317.401C500.787 319.329 502.637 321.461 505.409 322.163C508.18 322.866 510.823 321.872 511.311 319.944Z" fill="#FF6584"/>
<path d="M519.201 330.532C519.401 328.736 518.551 327.167 517.302 327.028C516.053 326.888 514.878 328.231 514.677 330.026C514.476 331.822 515.326 333.391 516.576 333.531C517.825 333.67 519 332.328 519.201 330.532Z" fill="#E6E6E6"/>
<path d="M521.984 351.74C522.184 349.944 521.334 348.375 520.085 348.236C518.836 348.096 517.661 349.439 517.46 351.234C517.259 353.03 518.109 354.599 519.359 354.738C520.608 354.878 521.783 353.536 521.984 351.74Z" fill="#3F3D56"/>
<path d="M487.383 311.324C487.584 309.528 486.734 307.959 485.485 307.82C484.236 307.68 483.06 309.023 482.86 310.818C482.659 312.614 483.509 314.183 484.758 314.323C486.007 314.462 487.183 313.12 487.383 311.324Z" fill="#E6E6E6"/>
<path d="M504.415 304.925C504.616 303.13 503.766 301.561 502.517 301.421C501.267 301.282 500.092 302.624 499.891 304.42C499.691 306.216 500.541 307.785 501.79 307.924C503.039 308.064 504.214 306.721 504.415 304.925Z" fill="#FF6584"/>
<path d="M483.433 287.639C483.633 285.843 482.783 284.274 481.534 284.135C480.285 283.995 479.11 285.338 478.909 287.133C478.708 288.929 479.558 290.498 480.808 290.638C482.057 290.777 483.232 289.435 483.433 287.639Z" fill="#3F3D56"/>
<path d="M49.9605 54.8658C50.449 52.9379 48.5985 50.8057 45.8271 50.1034C43.0558 49.4011 40.4131 50.3946 39.9245 52.3225C39.4359 54.2504 41.2865 56.3826 44.0578 57.085C46.8292 57.7873 49.4719 56.7938 49.9605 54.8658Z" fill="white"/>
<path d="M16.1168 54.6477C16.6054 52.7198 14.7549 50.5876 11.9835 49.8852C9.21214 49.1829 6.56945 50.1764 6.08087 52.1043C5.5923 54.0323 7.44285 56.1645 10.2142 56.8668C12.9856 57.5691 15.6283 56.5756 16.1168 54.6477Z" fill="#3F3D56"/>
<path d="M56.3115 82.9443C56.8001 81.0164 54.9495 78.8842 52.1781 78.1818C49.4068 77.4795 46.7641 78.4731 46.2755 80.401C45.7869 82.3289 47.6375 84.4611 50.4088 85.1634C53.1802 85.8657 55.8229 84.8722 56.3115 82.9443Z" fill="#FF6584"/>
<path d="M64.2008 93.532C64.4015 91.7363 63.5515 90.1674 62.3023 90.0279C61.0531 89.8883 59.8778 91.2308 59.6771 93.0265C59.4765 94.8222 60.3265 96.3911 61.5757 96.5306C62.8249 96.6702 64.0002 95.3276 64.2008 93.532Z" fill="#E6E6E6"/>
<path d="M66.9837 114.74C67.1843 112.944 66.3343 111.375 65.0852 111.236C63.836 111.096 62.6607 112.439 62.46 114.234C62.2594 116.03 63.1094 117.599 64.3586 117.738C65.6077 117.878 66.783 116.536 66.9837 114.74Z" fill="#3F3D56"/>
<path d="M32.3834 74.3239C32.5841 72.5282 31.7341 70.9594 30.4849 70.8198C29.2357 70.6802 28.0604 72.0228 27.8598 73.8184C27.6591 75.6141 28.5091 77.183 29.7583 77.3225C31.0075 77.4621 32.1828 76.1196 32.3834 74.3239Z" fill="#E6E6E6"/>
<path d="M49.4151 67.9254C49.6158 66.1298 48.7658 64.5609 47.5166 64.4213C46.2674 64.2818 45.0921 65.6243 44.8914 67.42C44.6908 69.2157 45.5408 70.7845 46.79 70.9241C48.0391 71.0637 49.2145 69.7211 49.4151 67.9254Z" fill="#FF6584"/>
<path d="M28.4328 50.6389C28.6335 48.8432 27.7835 47.2744 26.5343 47.1348C25.2851 46.9952 24.1098 48.3378 23.9091 50.1335C23.7085 51.9291 24.5585 53.498 25.8077 53.6376C27.0568 53.7771 28.2322 52.4346 28.4328 50.6389Z" fill="#3F3D56"/>
<path d="M158.373 198.095C160.582 198.095 162.373 196.304 162.373 194.095C162.373 191.886 160.582 190.095 158.373 190.095C156.164 190.095 154.373 191.886 154.373 194.095C154.373 196.304 156.164 198.095 158.373 198.095Z" fill="white"/>
<path d="M60.3728 236.095C61.4774 236.095 62.3728 235.2 62.3728 234.095C62.3728 232.991 61.4774 232.095 60.3728 232.095C59.2682 232.095 58.3728 232.991 58.3728 234.095C58.3728 235.2 59.2682 236.095 60.3728 236.095Z" fill="white"/>
<path d="M457.373 385.095C458.477 385.095 459.373 384.2 459.373 383.095C459.373 381.991 458.477 381.095 457.373 381.095C456.268 381.095 455.373 381.991 455.373 383.095C455.373 384.2 456.268 385.095 457.373 385.095Z" fill="white"/>
<path d="M199.373 293.095C200.477 293.095 201.373 292.2 201.373 291.095C201.373 289.991 200.477 289.095 199.373 289.095C198.268 289.095 197.373 289.991 197.373 291.095C197.373 292.2 198.268 293.095 199.373 293.095Z" fill="white"/>
<path d="M235.373 84.0953C236.477 84.0953 237.373 83.1999 237.373 82.0953C237.373 80.9908 236.477 80.0953 235.373 80.0953C234.268 80.0953 233.373 80.9908 233.373 82.0953C233.373 83.1999 234.268 84.0953 235.373 84.0953Z" fill="white"/>
<path d="M562.373 161.095C563.477 161.095 564.373 160.2 564.373 159.095C564.373 157.991 563.477 157.095 562.373 157.095C561.268 157.095 560.373 157.991 560.373 159.095C560.373 160.2 561.268 161.095 562.373 161.095Z" fill="white"/>
<path d="M97.3728 57.0953C98.4774 57.0953 99.3728 56.1999 99.3728 55.0953C99.3728 53.9908 98.4774 53.0953 97.3728 53.0953C96.2682 53.0953 95.3728 53.9908 95.3728 55.0953C95.3728 56.1999 96.2682 57.0953 97.3728 57.0953Z" fill="white"/>
<path d="M461.373 47.0953C463.582 47.0953 465.373 45.3045 465.373 43.0953C465.373 40.8862 463.582 39.0953 461.373 39.0953C459.164 39.0953 457.373 40.8862 457.373 43.0953C457.373 45.3045 459.164 47.0953 461.373 47.0953Z" fill="white"/>
<path d="M640.37 574.6H638.37C638.37 563.06 627.56 551.77 606.23 541.04C585.36 530.54 555.44 521.1 517.32 512.99C511.68 511.79 505.91 510.63 500.01 509.51C469.49 503.71 435.58 498.96 399.26 495.35C391.75 494.6 384.133 493.903 376.41 493.26C373.91 493.04 371.39 492.84 368.86 492.63C361.83 492.08 354.727 491.567 347.55 491.09C310.09 488.61 270.76 487.26 230.5 487.12C228.13 487.1 225.75 487.1 223.37 487.1C170.94 487.1 159.1 492.05 158.4 496.21C156.61 506.73 217.25 527.86 275.89 548.31C340.8 570.93 407.51 594.19 430.23 614C431 614.67 431.72 615.34 432.39 616H429.64C428.91 615.34 428.12 614.67 427.28 614C403.29 594.84 336 571.38 275.23 550.19C200.29 524.07 154.46 507.47 156.42 495.87C157.27 490.85 165.65 485.1 223.37 485.1C225.26 485.1 227.16 485.1 229.05 485.11C269.3 485.22 308.63 486.54 346.13 489C353.46 489.47 360.717 489.99 367.9 490.56C370.57 490.77 373.23 490.98 375.88 491.21C383.8 491.87 391.617 492.583 399.33 493.35C436.61 497.05 471.38 501.95 502.56 507.96C507.72 508.96 512.78 509.987 517.74 511.04C596.82 527.86 640.37 550.43 640.37 574.6Z" fill="#E6E6E6"/>
<path d="M609.373 569.779H607.373C607.373 561.239 572.485 552.095 520.548 552.095C468.612 552.095 433.724 561.239 433.724 569.779H431.724C431.724 557.458 476.886 550.095 520.548 550.095C564.21 550.095 609.373 557.458 609.373 569.779Z" fill="#E6E6E6"/>
<path d="M574.476 575.595H572.476C572.476 570.772 551.269 565.397 520.839 565.397C490.409 565.397 469.202 570.772 469.202 575.595H467.202C467.202 567.672 494.837 563.397 520.839 563.397C546.841 563.397 574.476 567.672 574.476 575.595Z" fill="#E6E6E6"/>
<path d="M360.373 134.095C382.464 134.095 400.373 116.187 400.373 94.0953C400.373 72.0039 382.464 54.0953 360.373 54.0953C338.281 54.0953 320.373 72.0039 320.373 94.0953C320.373 116.187 338.281 134.095 360.373 134.095Z" fill="#F2F2F2"/>
<path d="M354.373 137.095C376.464 137.095 394.373 119.187 394.373 97.0953C394.373 75.0039 376.464 57.0953 354.373 57.0953C332.281 57.0953 314.373 75.0039 314.373 97.0953C314.373 119.187 332.281 137.095 354.373 137.095Z" fill="#F2F2F2"/>
<path d="M398.372 535.04L360.88 535.039V534.565C360.88 530.695 362.418 526.983 365.154 524.247C367.891 521.51 371.603 519.972 375.473 519.972H375.474L382.322 514.777L395.1 519.973L398.373 519.973L398.372 535.04Z" fill="#F2F2F2"/>
<path d="M380.919 514.791L348.886 534.274L348.64 533.869C346.629 530.562 346.014 526.592 346.93 522.832C347.846 519.071 350.218 515.829 353.524 513.817L353.525 513.817L356.676 505.819L370.293 503.618L373.089 501.918L380.919 514.791Z" fill="#F2F2F2"/>
<path d="M402.943 408.565C402.773 409.765 402.523 413.845 402.233 419.785C400.823 448.585 398.373 521.095 398.373 521.095L383.103 516.345C383.103 516.345 364.943 461.565 367.943 431.565L365.783 421.125L362.083 403.285V403.275L350.813 348.945C350.813 348.945 348.343 363.665 348.143 367.115C347.943 370.565 345.943 371.565 344.943 371.565C339.933 371.565 341.473 370.675 342.203 375.625C342.733 379.185 338.393 399.595 335.913 410.755C334.953 415.095 334.273 418.035 334.273 418.035L338.513 427.175L373.663 502.975L360.373 510.095L307.353 431.515L302.123 423.765L301.003 415.075L292.183 346.705C292.183 346.705 289.433 338.975 292.183 338.775C294.943 338.565 296.503 339.435 295.723 336.505C294.943 333.565 310.943 284.565 310.943 284.565L393.943 302.565C393.943 302.565 402.123 318.825 398.943 326.565C395.753 334.305 401.553 394.245 398.243 396.906C394.943 399.565 392.813 397.435 397.373 402.005C398.07 402.733 398.894 403.329 399.803 403.765C402.623 405.045 403.743 402.965 402.943 408.565Z" fill="#F2F2F2"/>
<path d="M354.113 122.016C366.846 122.016 377.168 111.693 377.168 98.9599C377.168 86.2266 366.846 75.9042 354.113 75.9042C341.379 75.9042 331.057 86.2266 331.057 98.9599C331.057 111.693 341.379 122.016 354.113 122.016Z" fill="#FFC6CE"/>
<path d="M372.08 118.816L362.94 120.566C362.94 120.566 371.44 106.846 370.94 100.566C370.44 94.2862 363.6 92.0362 363.6 92.0362C363.6 92.0362 359.81 92.8562 355.82 93.3162C355.342 91.9707 354.721 90.6801 353.97 89.4662C353.822 91.0333 353.128 92.4985 352.01 93.6062C350.547 93.7318 349.075 93.5618 347.68 93.1062C346.1 92.3862 346.13 91.1362 346.65 89.9662C341.5 90.3912 336.474 91.7714 331.83 94.0362C331.6 90.9661 331.717 87.8799 332.18 84.8362C332.4 84.7762 332.62 84.7063 332.84 84.6362C334.202 84.205 335.516 83.6319 336.76 82.9262C335.376 82.7426 334.083 82.1347 333.06 81.1862C333.9 78.7262 335.24 76.5962 337.35 75.5562C339.385 74.5606 341.611 74.0141 343.877 73.9537C346.142 73.8933 348.394 74.3205 350.48 75.2062C350.48 75.2062 345.59 71.6362 347.39 70.1762C347.51 70.2962 347.63 70.4062 347.76 70.5162C347.93 70.6562 348.12 70.8062 348.3 70.9462C349.41 71.8462 351.07 70.5762 351.29 69.2162C351.313 69.0445 351.347 68.8742 351.39 68.7062C351.42 68.5662 351.46 68.4262 351.5 68.2962C351.534 68.1808 351.574 68.0673 351.62 67.9562C354.95 67.1562 365.02 70.4062 368.89 77.5662C368.89 77.5662 395.94 90.5662 372.08 118.816Z" fill="#3F3D56"/>
<path d="M363.728 324.376C363.394 322.073 363.973 319.731 365.34 317.848C366.707 315.964 368.755 314.689 371.048 314.293C371.516 314.22 371.989 314.185 372.462 314.19L396.569 258.208L413.106 270.624L380.908 323.658C380.736 325.618 379.92 327.466 378.587 328.914C377.255 330.362 375.481 331.328 373.541 331.661C372.436 331.84 371.307 331.799 370.217 331.542C369.127 331.284 368.099 330.815 367.191 330.16C366.283 329.505 365.513 328.678 364.924 327.725C364.336 326.772 363.941 325.713 363.762 324.608C363.75 324.531 363.738 324.454 363.728 324.376Z" fill="#6C63FF"/>
<path d="M296.197 328.94C297.819 327.271 298.726 325.035 298.725 322.708C298.724 320.381 297.815 318.146 296.191 316.479C295.856 316.145 295.493 315.84 295.108 315.566L308.462 256.095L287.786 256.436L282.712 318.271C281.7 319.959 281.275 321.934 281.504 323.888C281.733 325.842 282.602 327.666 283.976 329.074C284.765 329.868 285.703 330.499 286.737 330.93C287.77 331.361 288.878 331.585 289.998 331.588C291.117 331.591 292.227 331.373 293.262 330.948C294.298 330.522 295.239 329.896 296.033 329.107C296.088 329.052 296.143 328.996 296.197 328.94Z" fill="#6C63FF"/>
<path d="M429.443 229.385C426.443 233.385 422.443 228.875 426.443 234.635C429.193 238.595 413.433 275.715 403.343 298.455C398.783 308.745 395.373 316.095 395.373 316.095L378.363 306.245L376.373 305.095C376.373 305.095 391.973 265.835 396.993 251.725C397.823 249.385 398.373 247.735 398.503 247.075C399.443 242.385 399.563 238.365 398.503 236.875C398.252 236.32 398.038 235.749 397.863 235.165C395.853 229.275 389.733 209.385 384.003 190.575C382.333 185.055 380.683 179.635 379.183 174.685C375.333 161.975 372.443 152.385 372.443 152.385L395.443 153.385C395.443 153.385 395.823 154.025 396.493 155.185C398.093 157.945 401.373 163.635 405.173 170.475C407.913 175.395 410.933 180.925 413.783 186.365C421.043 200.205 427.293 213.535 425.443 215.385C421.443 219.385 417.353 217.115 422.393 222.245C427.443 227.385 432.443 225.385 429.443 229.385Z" fill="#F2F2F2"/>
<path d="M401.94 282.566C395.94 276.626 397.05 249.556 397.05 249.556C397.05 249.556 403.02 158.656 394.94 152.566C389.353 148.534 383.408 145.023 377.18 142.076C376.82 141.916 376.63 141.826 376.63 141.826L371.47 127.276L339.68 125.626L334.13 136.406C334.13 136.406 333.26 136.466 331.9 136.656C326.82 137.356 314.88 139.836 315.94 147.566C317.28 157.366 307.82 217.556 304.94 220.566C302.06 223.576 302.82 234.576 309.94 241.566C317.06 248.556 311.94 267.566 306.94 275.566C303.939 280.463 302.554 286.179 302.98 291.906C302.98 291.906 306.94 313.566 316.94 306.566C320.75 303.896 326.16 303.556 332.67 304.046C332.733 304.051 332.802 304.059 332.866 304.064L332.67 305.046C341.71 305.716 352.88 307.986 364.83 307.856L364.476 306.852C364.595 306.851 364.711 306.858 364.83 306.856C366.85 306.836 368.88 306.746 370.94 306.566C388.76 305.016 396.63 309.916 398.94 304.566C401.25 299.216 407.94 288.506 401.94 282.566Z" fill="#F2F2F2"/>
<path opacity="0.3" d="M354.373 127.095C370.941 127.095 384.373 113.664 384.373 97.0953C384.373 80.5268 370.941 67.0953 354.373 67.0953C337.804 67.0953 324.373 80.5268 324.373 97.0953C324.373 113.664 337.804 127.095 354.373 127.095Z" fill="#6C63FF"/>
<path d="M339.943 142.385C339.943 142.385 335.383 157.525 330.073 174.995C328.403 180.495 326.653 186.225 324.953 191.795C319.403 209.905 314.343 226.225 313.873 226.875C312.813 228.365 312.943 232.385 313.873 237.075C314.063 238.015 313.633 241.675 312.823 246.925C311.763 253.815 310.053 263.435 308.233 273.255C306.783 281.105 305.263 289.075 303.953 295.865C301.903 306.405 300.373 314.095 300.373 314.095H281.373C281.373 314.095 284.943 234.385 288.943 228.635C292.943 222.875 288.943 227.385 285.943 223.385C282.943 219.385 287.943 221.385 292.983 216.245C298.023 211.115 293.943 213.385 289.943 209.385C288.463 207.905 291.773 198.475 296.533 187.185C298.753 181.945 301.283 176.295 303.783 170.855C308.953 159.625 314.023 149.295 316.033 145.215C316.033 145.205 316.043 145.195 316.043 145.185L316.943 143.385L339.943 142.385Z" fill="#F2F2F2"/>
<path d="M381.373 146.095C360.494 154.205 341.722 155.603 326.373 146.095V128.095C344.45 138.942 362.79 138.645 381.373 128.095V146.095Z" fill="#3F3D56"/>
<path d="M397.373 261.095C365.105 269.205 336.094 270.603 312.373 261.095V243.095C340.31 253.942 368.654 253.645 397.373 243.095V261.095Z" fill="#3F3D56"/>
<path d="M402.943 408.565C402.773 409.765 402.523 413.845 402.233 419.785C390.185 421.737 377.942 422.188 365.783 421.125L362.083 403.285C374.54 405.56 387.292 405.722 399.803 403.765C402.623 405.045 403.743 402.965 402.943 408.565Z" fill="#3F3D56"/>
<path d="M338.513 427.175C328.26 429.457 317.839 430.908 307.353 431.515L302.123 423.765L301.003 415.075C312.79 415.379 324.556 413.923 335.913 410.755C334.953 415.095 334.273 418.035 334.273 418.035L338.513 427.175Z" fill="#3F3D56"/>
<path d="M341.373 184.095C341.373 186.747 340.319 189.291 338.444 191.166C336.568 193.042 334.025 194.095 331.373 194.095C328.721 194.095 326.177 193.042 324.302 191.166C322.426 189.291 321.373 186.747 321.373 184.095C321.373 178.572 330.373 167.095 331.373 174.095C332.373 181.095 341.373 178.572 341.373 184.095Z" fill="#6C63FF"/>
<path d="M332.46 167.14C332.1 167.11 331.74 167.1 331.37 167.1C327.017 167.105 322.831 168.778 319.673 171.774C316.515 174.771 314.624 178.863 314.39 183.21C314.38 183.5 314.37 183.8 314.37 184.1C314.37 184.51 314.38 184.91 314.42 185.31C314.671 188.87 316.038 192.26 318.325 194.999C320.612 197.739 323.703 199.688 327.161 200.572C330.618 201.455 334.266 201.227 337.587 199.92C340.907 198.613 343.732 196.293 345.66 193.29C346.047 192.697 346.395 192.079 346.7 191.44C347.902 188.933 348.471 186.168 348.355 183.39C348.24 180.612 347.445 177.904 346.039 175.505C344.633 173.106 342.659 171.089 340.292 169.63C337.924 168.172 335.235 167.317 332.46 167.14V167.14ZM344.2 193C342.632 194.886 340.672 196.409 338.456 197.462C336.241 198.515 333.823 199.074 331.37 199.1C327.717 199.095 324.192 197.759 321.453 195.342C318.714 192.925 316.95 189.593 316.49 185.97C316.41 185.35 316.369 184.725 316.37 184.1C316.368 184.013 316.372 183.926 316.38 183.84C316.449 179.909 318.058 176.162 320.861 173.405C323.665 170.648 327.438 169.103 331.37 169.1C331.46 169.34 331.55 169.57 331.65 169.79C335.92 179.89 345.18 179.13 346.37 184.1C346.946 186.503 346.596 189.034 345.39 191.19C345.051 191.829 344.653 192.435 344.2 193V193Z" fill="#6C63FF"/>
</g>
<path d="M599.288 627.391C596.851 671.48 559.289 707.352 517.518 721.685C503.795 726.295 489.606 729.378 475.207 730.878C466.883 731.805 458.481 732.314 450.036 732.503C447.961 732.553 445.876 732.589 443.792 732.596C442.377 732.609 440.96 732.611 439.54 732.603C421.77 732.52 403.901 731.297 386.261 729.994C342.225 726.74 296.93 723.319 254.785 736.489C246.103 739.203 236.162 744.568 235.961 753.664C235.788 761.56 243.283 767.349 250.426 770.714C276.905 783.165 307.814 781.141 336.629 776.07C365.444 770.998 394.215 763.111 423.434 764.689C452.654 766.267 483.457 779.669 496.087 806.058C506.972 828.8 501.857 856.999 487.512 877.729C473.163 898.454 450.846 912.505 427.432 921.848C404.014 931.186 379.181 936.316 354.819 942.799C340.127 946.703 322.748 954.431 321.763 969.602C320.934 982.419 333.765 992.788 346.543 994.074C359.32 995.36 371.748 990.115 383.515 984.98C420.054 969.041 456.592 953.101 493.129 937.159C504.334 932.265 515.834 927.302 528.044 926.551C540.251 925.795 553.515 930.09 560.258 940.293C566.9 950.353 565.747 964.132 559.925 974.69C554.105 985.24 544.335 993.047 534.127 999.456C495.874 1023.47 348.778 1038.59 318.086 1048.8C298.368 1055.37 275.547 1060.73 257.786 1049.94C235.674 1036.51 233.443 1003.18 246.556 980.873C259.661 958.568 283.387 944.959 306.486 933.304C329.585 921.648 353.944 910.324 370.452 890.398C386.959 870.473 392.821 838.92 376.081 819.192C361.514 802.028 335.298 799.709 313.613 805.743C296.637 810.465 281.215 819.277 265.382 827.109C260.991 829.287 256.564 831.384 252.068 833.299C240.548 838.196 228.55 841.879 216.267 844.289C203.384 846.828 190.265 847.977 177.137 847.718C166.671 847.519 156.243 846.404 145.972 844.384C144.404 844.074 142.831 843.736 141.253 843.371C139.748 843.018 138.239 842.638 136.736 842.226C117.215 836.918 98.424 826.723 89.5315 808.925C80.6641 791.173 83.8767 769.013 94.3377 752.155C100.513 742.494 108.481 734.105 117.811 727.441C124.614 722.498 131.857 718.19 139.449 714.572C174.462 697.665 213.993 692.861 252.804 690.442C291.608 688.026 330.847 687.711 368.712 678.882C406.581 670.058 443.8 651.563 466.419 619.934C489.041 588.309 493.435 541.956 469.766 511.11C501.666 514.39 533.644 524.169 558.715 544.161C583.786 564.152 601.055 595.372 599.288 627.391Z" fill="#3F3D56"/>
<path d="M426.779 688.515C425.393 690.424 425.816 693.095 427.724 694.482C429.633 695.869 432.305 695.446 433.691 693.537C435.078 691.628 434.655 688.957 432.746 687.57C430.838 686.184 428.166 686.607 426.779 688.515Z" fill="#6C63FF"/>
<path d="M516.464 554.684C514.32 557.635 514.974 561.765 517.925 563.909C520.876 566.053 525.007 565.399 527.151 562.448C529.295 559.497 528.64 555.367 525.689 553.222C522.738 551.078 518.608 551.733 516.464 554.684Z" fill="#FF6584"/>
<path d="M283.153 975.23C282.361 976.321 282.603 977.847 283.693 978.639C284.783 979.431 286.31 979.189 287.102 978.099C287.894 977.009 287.652 975.482 286.562 974.69C285.472 973.898 283.945 974.14 283.153 975.23Z" fill="#FF6584"/>
<path d="M418.283 1012.38C417.49 1013.47 417.732 1014.99 418.823 1015.78C419.913 1016.58 421.439 1016.33 422.231 1015.24C423.023 1014.15 422.782 1012.63 421.691 1011.84C420.601 1011.04 419.075 1011.29 418.283 1012.38Z" fill="#FF6584"/>
<path d="M262.418 821.519C263.629 823.255 264.625 825.132 265.382 827.108C260.991 829.287 256.564 831.384 252.068 833.299C240.548 838.196 228.55 841.879 216.267 844.289C214.378 838.355 214.681 831.941 217.118 826.211C219.555 820.481 223.967 815.814 229.551 813.059C235.136 810.304 241.523 809.642 247.553 811.194C253.584 812.747 258.858 816.41 262.418 821.519L262.418 821.519Z" fill="#FF6584"/>
<path d="M509.602 616.414C508.792 617.529 509.039 619.09 510.154 619.9C511.269 620.71 512.83 620.463 513.64 619.348C514.451 618.233 514.203 616.672 513.088 615.862C511.973 615.052 510.412 615.299 509.602 616.414Z" fill="#F0F0F0"/>
<path d="M479.26 972.33C478.45 973.445 478.697 975.006 479.812 975.816C480.928 976.626 482.488 976.379 483.299 975.264C484.109 974.148 483.862 972.588 482.746 971.777C481.631 970.967 480.07 971.214 479.26 972.33Z" fill="#F0F0F0"/>
<path d="M528.435 980.28C527.625 981.395 527.872 982.956 528.987 983.766C530.102 984.577 531.663 984.329 532.473 983.214C533.283 982.099 533.036 980.538 531.921 979.728C530.806 978.918 529.245 979.165 528.435 980.28Z" fill="#F0F0F0"/>
<path d="M290.494 1025.85C289.683 1026.96 289.931 1028.53 291.046 1029.34C292.161 1030.15 293.722 1029.9 294.532 1028.78C295.342 1027.67 295.095 1026.11 293.98 1025.3C292.865 1024.49 291.304 1024.73 290.494 1025.85Z" fill="#F0F0F0"/>
<path d="M364.651 917.681C363.841 918.796 364.088 920.357 365.203 921.167C366.318 921.977 367.879 921.73 368.689 920.615C369.499 919.5 369.252 917.939 368.137 917.129C367.022 916.319 365.461 916.566 364.651 917.681Z" fill="#F0F0F0"/>
<path d="M212.955 721.476C212.145 722.591 212.392 724.152 213.508 724.962C214.623 725.772 216.184 725.525 216.994 724.41C217.804 723.295 217.557 721.734 216.442 720.924C215.326 720.113 213.766 720.361 212.955 721.476Z" fill="#F0F0F0"/>
<path d="M448.457 795.637C447.647 796.752 447.894 798.313 449.009 799.123C450.125 799.933 451.685 799.686 452.496 798.571C453.306 797.456 453.059 795.895 451.943 795.085C450.828 794.275 449.268 794.522 448.457 795.637Z" fill="#F0F0F0"/>
<path d="M488.697 820.542C487.887 821.657 488.134 823.218 489.249 824.028C490.364 824.838 491.925 824.591 492.735 823.476C493.545 822.361 493.298 820.8 492.183 819.99C491.068 819.179 489.507 819.427 488.697 820.542Z" fill="#F0F0F0"/>
<path d="M174.125 761.107C181.343 771.436 186.002 783.334 187.718 795.818C187.942 797.465 188.114 799.116 188.236 800.772C189.449 817.19 185.574 833.582 177.137 847.718C166.671 847.519 156.243 846.403 145.972 844.383C144.404 844.074 142.831 843.736 141.253 843.371C139.748 843.017 138.239 842.638 136.736 842.226C117.215 836.917 98.4243 826.722 89.5318 808.924C80.6643 791.173 83.877 769.013 94.338 752.155C100.513 742.494 108.481 734.105 117.811 727.441C129.727 728.817 141.18 732.858 151.321 739.265C152.598 740.071 153.846 740.918 155.08 741.797C162.485 747.098 168.927 753.629 174.125 761.107V761.107Z" fill="#6C63FF"/>
<path d="M206.335 743.678C213.323 753.71 210.009 769.84 197.005 789.106C194.405 792.963 189.836 795.962 188.235 800.773C180.47 824.11 164.037 838.463 141.253 843.372C139.748 843.018 138.239 842.639 136.736 842.226C136.941 842.09 137.144 841.949 137.346 841.808C157.724 827.613 175.258 811.565 187.717 795.819C190.017 792.907 194.351 790.591 194.086 787.133C191.95 759.368 206.499 752.208 203.445 745.691C198.984 736.171 182.085 735.032 161.327 740.107C159.273 740.608 157.19 741.171 155.08 741.797C153.845 740.919 152.597 740.072 151.32 739.266C154.44 738.28 157.496 737.42 160.489 736.685C183.068 731.164 199.35 733.65 206.335 743.678Z" fill="#E4E4E4"/>
<path d="M88.4996 766.68C87.6894 767.795 87.9366 769.356 89.0517 770.166C90.1669 770.977 91.7276 770.729 92.5378 769.614C93.348 768.499 93.1008 766.938 91.9857 766.128C90.8706 765.318 89.3098 765.565 88.4996 766.68Z" fill="#F0F0F0"/>
<path d="M140.424 749.825C139.613 750.94 139.861 752.501 140.976 753.311C142.091 754.121 143.652 753.874 144.462 752.759C145.272 751.644 145.025 750.083 143.91 749.273C142.795 748.463 141.234 748.71 140.424 749.825Z" fill="#F0F0F0"/>
<path d="M115.079 773.17C107.2 784.014 109.604 799.192 120.448 807.07C131.293 814.949 146.47 812.545 154.349 801.701C162.228 790.857 159.824 775.679 148.98 767.8C138.136 759.922 122.958 762.326 115.079 773.17Z" fill="#F0F0F0"/>
<path opacity="0.3" d="M575.914 636.648C572.364 641.082 563.187 648.919 552.766 657.065C542.347 665.203 530.646 673.739 519.088 682.163C498.86 696.912 478.634 711.661 458.412 726.411C455.633 728.44 452.841 730.47 450.036 732.502C447.961 732.553 445.876 732.589 443.792 732.596C446.321 730.856 448.83 729.086 451.296 727.297C461.826 719.647 470.286 712.517 480.308 704.949C495.728 693.299 513.171 681.864 529.858 670.605C546.547 659.351 565.301 646.152 575.914 636.648Z" fill="#F0F0F0"/>
<path opacity="0.3" d="M366.478 1008.04L263.024 999.102L366.132 1011.52C366.4 1011.64 366.693 1011.7 366.986 1011.69C367.28 1011.67 367.566 1011.59 367.821 1011.44C368.076 1011.29 368.292 1011.09 368.451 1010.84C368.611 1010.59 368.709 1010.31 368.738 1010.02C368.767 1009.73 368.726 1009.43 368.618 1009.16C368.51 1008.89 368.338 1008.64 368.117 1008.45C367.896 1008.25 367.632 1008.12 367.347 1008.04C367.062 1007.97 366.764 1007.97 366.478 1008.04V1008.04Z" fill="#F0F0F0"/>
<path d="M169.47 832.601C168.66 833.716 168.907 835.277 170.022 836.087C171.138 836.897 172.698 836.65 173.509 835.535C174.319 834.42 174.072 832.859 172.956 832.049C171.841 831.238 170.28 831.486 169.47 832.601Z" fill="#F0F0F0"/>
<defs>
<clipPath id="clip0_818_3">
<rect width="693" height="616" fill="white"/>
</clipPath>
</defs>
</svg>
