<svg width="950" height="328" viewBox="0 0 950 328" fill="none" xmlns="http://www.w3.org/2000/svg">
<path d="M94.6849 224.085C84.94 214.035 70.8183 208.271 55.9407 208.271L55.3668 208.273C45.5673 208.276 35.9427 205.677 27.4773 200.741L26.5964 200.228L27.3059 199.497C31.147 195.523 34.3543 190.982 36.8155 186.033C35.0675 187.663 32.9827 188.888 30.7086 189.623C28.4345 190.357 26.0267 190.583 23.6556 190.284C21.1524 189.986 18.7492 189.124 16.6264 187.765C14.5035 186.405 12.7161 184.582 11.3983 182.433C6.19838 173.996 6.10352e-05 162.025 6.10352e-05 152.905C0.00815206 145.197 1.62218 137.574 4.73927 130.524C7.85637 123.474 12.4082 117.15 18.1045 111.957C21.7107 108.705 24.5912 104.73 26.5581 100.29C28.525 95.8505 29.5342 91.0462 29.5198 86.1905L29.5169 85.4995C29.5159 79.1065 30.2972 72.7375 31.8432 66.5343L32.0002 65.9079L32.6447 65.9304C36.8008 66.0719 40.959 65.7235 45.0337 64.8926C41.2117 64.4238 37.4728 63.4293 33.9229 61.9374L33.2296 61.6569L33.4648 60.9464C51.2317 36.9679 89.2848 24.7215 107.549 7.48252C138.84 -22.051 185.581 42.4807 185.581 85.4995C185.581 89.889 181.237 95.6897 184.489 98.591C219.644 129.954 195.388 150.093 187.74 170.358C185.926 175.167 189.86 180.445 189.86 185.647C189.86 186.529 189.837 187.44 189.793 188.355L189.725 189.76L188.553 188.98C186.234 187.461 184.085 185.698 182.142 183.721C184.158 188.361 185.108 193.393 184.922 198.448C184.736 203.503 183.42 208.452 181.069 212.931C177.384 219.885 173.82 224.863 170.475 227.726C159.759 236.897 145.945 241.627 131.857 240.95C117.769 240.273 104.472 234.24 94.685 224.085L94.6849 224.085Z" fill="#6C63FF"/>
<path d="M154.017 327.744C154.256 327.744 154.488 327.657 154.669 327.5C154.849 327.343 154.968 327.126 155.001 326.889C155.044 326.592 159.187 296.707 155.466 256.99C152.029 220.31 140.992 167.479 107.931 124.089C107.851 123.984 107.753 123.896 107.639 123.83C107.526 123.764 107.401 123.721 107.271 123.703C107.142 123.685 107.009 123.693 106.883 123.727C106.756 123.76 106.637 123.818 106.533 123.898C106.429 123.977 106.341 124.076 106.275 124.19C106.21 124.303 106.167 124.428 106.149 124.558C106.132 124.688 106.141 124.82 106.174 124.947C106.208 125.073 106.267 125.192 106.347 125.296C139.123 168.311 150.071 220.755 153.483 257.176C157.183 296.662 153.072 326.313 153.03 326.608C153.01 326.749 153.02 326.893 153.061 327.03C153.101 327.167 153.171 327.294 153.264 327.401C153.358 327.509 153.473 327.595 153.603 327.654C153.733 327.714 153.874 327.744 154.017 327.744Z" fill="#3F3D56"/>
<path d="M123.828 184.194C124.038 184.194 124.243 184.128 124.414 184.004C124.584 183.881 124.711 183.707 124.776 183.507C124.841 183.307 124.841 183.091 124.776 182.891C124.711 182.691 124.585 182.517 124.414 182.393C114.994 176.016 104.817 170.836 94.1176 166.97C77.4023 160.851 51.9842 155.303 25.8168 163.631C25.5652 163.711 25.3557 163.888 25.2344 164.122C25.1131 164.357 25.0899 164.63 25.17 164.882C25.2501 165.133 25.4268 165.343 25.6614 165.464C25.8959 165.586 26.169 165.609 26.4207 165.529C52.052 157.372 77.0093 162.828 93.4329 168.841C103.96 172.64 113.974 177.733 123.244 184.004C123.413 184.128 123.618 184.194 123.828 184.194Z" fill="#3F3D56"/>
<path d="M170.084 66.5921C170.099 66.3824 170.048 66.1731 169.937 65.9944C169.826 65.8158 169.661 65.6768 169.467 65.5974C169.272 65.5181 169.057 65.5025 168.853 65.5529C168.648 65.6032 168.465 65.717 168.33 65.8778C161.291 74.8148 155.391 84.5922 150.765 94.9852C143.458 111.216 136.094 136.169 142.516 162.868C142.546 162.996 142.601 163.116 142.678 163.222C142.755 163.328 142.852 163.418 142.964 163.487C143.075 163.555 143.199 163.601 143.329 163.622C143.458 163.642 143.59 163.637 143.718 163.606C143.845 163.576 143.965 163.52 144.071 163.443C144.177 163.366 144.267 163.269 144.335 163.157C144.403 163.045 144.448 162.921 144.469 162.791C144.489 162.662 144.483 162.53 144.452 162.403C138.162 136.25 145.401 111.751 152.581 95.8028C157.129 85.5766 162.93 75.9557 169.852 67.1615C169.988 67.0011 170.069 66.8017 170.084 66.5921Z" fill="#3F3D56"/>
<path d="M854.339 224.085C864.083 214.035 878.205 208.271 893.083 208.271L893.657 208.273C903.456 208.276 913.081 205.677 921.546 200.741L922.427 200.228L921.718 199.497C917.877 195.523 914.669 190.982 912.208 186.033C913.956 187.663 916.041 188.888 918.315 189.623C920.589 190.357 922.997 190.583 925.368 190.284C927.871 189.986 930.274 189.124 932.397 187.765C934.52 186.405 936.307 184.582 937.625 182.433C942.825 173.996 949.023 162.025 949.023 152.905C949.015 145.197 947.401 137.574 944.284 130.524C941.167 123.474 936.615 117.15 930.919 111.957C927.313 108.705 924.432 104.73 922.465 100.29C920.498 95.8505 919.489 91.0462 919.504 86.1905L919.507 85.4995C919.508 79.1065 918.726 72.7375 917.18 66.5343L917.023 65.9079L916.379 65.9304C912.223 66.0719 908.064 65.7235 903.99 64.8926C907.812 64.4238 911.551 63.4293 915.101 61.9374L915.794 61.6569L915.559 60.9464C897.792 36.9679 859.739 24.7215 841.474 7.48252C810.184 -22.051 763.442 42.4807 763.442 85.4995C763.442 89.889 767.786 95.6897 764.534 98.591C729.38 129.954 753.636 150.093 761.283 170.358C763.098 175.167 759.164 180.445 759.164 185.647C759.164 186.529 759.186 187.44 759.23 188.355L759.298 189.76L760.47 188.98C762.789 187.461 764.939 185.698 766.882 183.721C764.866 188.361 763.916 193.393 764.101 198.448C764.287 203.503 765.604 208.452 767.955 212.931C771.639 219.885 775.203 224.863 778.548 227.726C789.264 236.897 803.079 241.627 817.166 240.95C831.254 240.273 844.551 234.24 854.339 224.085L854.339 224.085Z" fill="#6C63FF"/>
<path d="M795.007 327.744C794.767 327.744 794.536 327.657 794.355 327.5C794.174 327.343 794.056 327.126 794.022 326.889C793.98 326.592 789.836 296.707 793.558 256.99C796.994 220.31 808.031 167.479 841.093 124.089C841.172 123.984 841.271 123.896 841.384 123.83C841.497 123.764 841.622 123.721 841.752 123.703C841.882 123.685 842.014 123.693 842.141 123.727C842.267 123.76 842.386 123.818 842.491 123.898C842.595 123.977 842.682 124.076 842.748 124.19C842.814 124.303 842.857 124.428 842.874 124.558C842.891 124.688 842.883 124.82 842.849 124.947C842.815 125.073 842.757 125.192 842.677 125.296C809.901 168.311 798.953 220.755 795.54 257.176C791.841 296.662 795.952 326.313 795.994 326.608C796.014 326.749 796.003 326.893 795.963 327.03C795.922 327.167 795.853 327.294 795.759 327.401C795.666 327.509 795.55 327.595 795.42 327.654C795.29 327.714 795.149 327.744 795.007 327.744Z" fill="#3F3D56"/>
<path d="M825.195 184.194C824.985 184.194 824.78 184.128 824.61 184.004C824.44 183.881 824.313 183.707 824.248 183.507C824.183 183.307 824.183 183.091 824.247 182.891C824.312 182.691 824.439 182.517 824.609 182.393C834.03 176.016 844.207 170.836 854.906 166.97C871.621 160.851 897.039 155.303 923.207 163.631C923.458 163.711 923.668 163.888 923.789 164.122C923.91 164.357 923.934 164.63 923.854 164.882C923.773 165.133 923.597 165.343 923.362 165.464C923.128 165.586 922.854 165.609 922.603 165.529C896.972 157.372 872.014 162.828 855.591 168.841C845.064 172.64 835.05 177.733 825.78 184.004C825.61 184.128 825.405 184.194 825.195 184.194Z" fill="#3F3D56"/>
<path d="M778.939 66.5921C778.924 66.3824 778.976 66.1731 779.087 65.9944C779.198 65.8158 779.362 65.6768 779.557 65.5974C779.752 65.5181 779.967 65.5025 780.171 65.5529C780.375 65.6032 780.558 65.717 780.694 65.8778C787.732 74.8148 793.632 84.5922 798.258 94.9852C805.566 111.216 812.93 136.169 806.507 162.868C806.477 162.996 806.422 163.116 806.345 163.222C806.268 163.328 806.171 163.418 806.06 163.487C805.948 163.555 805.824 163.601 805.695 163.622C805.565 163.642 805.433 163.637 805.306 163.606C805.178 163.576 805.058 163.52 804.952 163.443C804.847 163.366 804.757 163.269 804.689 163.157C804.62 163.045 804.575 162.921 804.555 162.791C804.535 162.662 804.54 162.53 804.571 162.403C810.861 136.25 803.622 111.751 796.442 95.8028C791.895 85.5766 786.093 75.9557 779.171 67.1615C779.036 67.0011 778.954 66.8017 778.939 66.5921Z" fill="#3F3D56"/>
</svg>
