<svg width="660" height="1210" viewBox="0 0 660 1210" fill="none" xmlns="http://www.w3.org/2000/svg">
<path d="M67.5307 835.265C67.5307 819.655 54.8759 807 39.2654 807C23.6548 807 11 819.655 11 835.265C11 850.876 23.6548 863.531 39.2654 863.531C54.8759 863.531 67.5307 850.876 67.5307 835.265Z" fill="#6C63FF"/>
<path d="M507.531 28.2653C507.531 12.6547 494.876 -9.91821e-05 479.265 -9.91821e-05C463.655 -9.91821e-05 451 12.6547 451 28.2653C451 43.8758 463.655 56.5306 479.265 56.5306C494.876 56.5306 507.531 43.8758 507.531 28.2653Z" fill="#6C63FF"/>
<path d="M413.643 293.739C413.643 290.617 411.112 288.086 407.99 288.086C404.868 288.086 402.337 290.617 402.337 293.739C402.337 296.861 404.868 299.392 407.99 299.392C411.112 299.392 413.643 296.861 413.643 293.739Z" fill="#6C63FF"/>
<path d="M523.88 582.036C523.88 578.914 521.349 576.383 518.227 576.383C515.104 576.383 512.573 578.914 512.573 582.036C512.573 585.158 515.104 587.689 518.227 587.689C521.349 587.689 523.88 585.158 523.88 582.036Z" fill="#6C63FF"/>
<path d="M379.726 901.437C379.726 898.315 377.195 895.784 374.073 895.784C370.951 895.784 368.42 898.315 368.42 901.437C368.42 904.559 370.951 907.09 374.073 907.09C377.195 907.09 379.726 904.559 379.726 901.437Z" fill="#FF6584"/>
<path d="M238.398 765.766C238.398 762.644 235.867 760.113 232.744 760.113C229.622 760.113 227.091 762.644 227.091 765.766C227.091 768.888 229.622 771.419 232.744 771.419C235.867 771.419 238.398 768.888 238.398 765.766Z" fill="white"/>
<path d="M11.3061 1016.65C11.3061 1013.53 8.77518 1011 5.65307 1011C2.53096 1011 0 1013.53 0 1016.65C0 1019.78 2.53096 1022.31 5.65307 1022.31C8.77518 1022.31 11.3061 1019.78 11.3061 1016.65Z" fill="white"/>
<path d="M301.306 131.878C301.306 128.755 298.775 126.224 295.653 126.224C292.531 126.224 290 128.755 290 131.878C290 135 292.531 137.531 295.653 137.531C298.775 137.531 301.306 135 301.306 131.878Z" fill="white"/>
<path d="M110.306 1168.65C110.306 1165.53 107.775 1163 104.653 1163C101.531 1163 99 1165.53 99 1168.65C99 1171.78 101.531 1174.31 104.653 1174.31C107.775 1174.31 110.306 1171.78 110.306 1168.65Z" fill="white"/>
<path d="M489.959 771.419C489.959 768.297 487.428 765.766 484.306 765.766C481.184 765.766 478.653 768.297 478.653 771.419C478.653 774.541 481.184 777.072 484.306 777.072C487.428 777.072 489.959 774.541 489.959 771.419Z" fill="white"/>
<path d="M549.306 370.671C549.306 367.549 546.775 365.018 543.653 365.018C540.531 365.018 538 367.549 538 370.671C538 373.793 540.531 376.324 543.653 376.324C546.775 376.324 549.306 373.793 549.306 370.671Z" fill="#FF6584"/>
<path d="M659.539 240.653C659.539 237.531 657.008 235 653.885 235C650.763 235 648.232 237.531 648.232 240.653C648.232 243.775 650.763 246.306 653.885 246.306C657.008 246.306 659.539 243.775 659.539 240.653Z" fill="white"/>
<path d="M472.998 1203.88C472.998 1200.76 470.468 1198.22 467.345 1198.22C464.223 1198.22 461.692 1200.76 461.692 1203.88C461.692 1207 464.223 1209.53 467.345 1209.53C470.468 1209.53 472.998 1207 472.998 1203.88Z" fill="#FF6584"/>
<path d="M532.603 991.778L533.067 997.109L538.282 998.313L533.355 1000.4L533.821 1005.74L530.311 1001.7L525.384 1003.79L528.14 999.201L524.629 995.162L529.844 996.366L532.603 991.778Z" fill="white"/>
<path d="M232.991 310.577L233.455 315.908L238.67 317.112L233.743 319.204L234.21 324.534L230.699 320.495L225.772 322.587L228.528 318L225.018 313.96L230.233 315.164L232.991 310.577Z" fill="white"/>
<path d="M587.974 42.9998L588.437 48.3308L593.652 49.5348L588.726 51.6264L589.192 56.9574L585.681 52.9182L580.755 55.0098L583.511 50.4224L580 46.3832L585.215 47.5874L587.974 42.9998Z" fill="white"/>
<path d="M396.929 587.58L397.393 592.911L402.608 594.115L397.681 596.207L398.147 601.537L394.637 597.498L389.71 599.59L392.466 595.002L388.956 590.963L394.17 592.167L396.929 587.58Z" fill="white"/>
<path d="M648.492 839.145L648.955 844.476L654.17 845.68L649.244 847.772L649.71 853.103L646.199 849.063L641.273 851.155L644.029 846.568L640.518 842.528L645.733 843.733L648.492 839.145Z" fill="white"/>
<path d="M249.841 1014.53L250.304 1019.86L255.519 1021.07L250.593 1023.16L251.059 1028.49L247.549 1024.45L242.622 1026.54L245.378 1021.95L241.867 1017.91L247.082 1019.12L249.841 1014.53Z" fill="white"/>
<path d="M314.96 1141.58L315.423 1146.91L320.638 1148.12L315.712 1150.21L316.178 1155.54L312.667 1151.5L307.741 1153.59L310.497 1149L306.986 1144.97L312.201 1146.17L314.96 1141.58Z" fill="white"/>
</svg>
