<svg width="1644" height="459" viewBox="0 0 1644 459" fill="none" xmlns="http://www.w3.org/2000/svg">
<path d="M1615.27 264.531C1630.88 264.531 1643.53 251.876 1643.53 236.265C1643.53 220.655 1630.88 208 1615.27 208C1599.65 208 1587 220.655 1587 236.265C1587 251.876 1599.65 264.531 1615.27 264.531Z" fill="#6C63FF"/>
<path d="M915.792 217.643C918.914 217.643 921.445 215.112 921.445 211.99C921.445 208.868 918.914 206.337 915.792 206.337C912.67 206.337 910.139 208.868 910.139 211.99C910.139 215.112 912.67 217.643 915.792 217.643Z" fill="#6C63FF"/>
<path d="M627.495 327.879C630.617 327.879 633.148 325.348 633.148 322.226C633.148 319.104 630.617 316.573 627.495 316.573C624.373 316.573 621.842 319.104 621.842 322.226C621.842 325.348 624.373 327.879 627.495 327.879Z" fill="#6C63FF"/>
<path d="M308.094 183.726C311.216 183.726 313.747 181.195 313.747 178.073C313.747 174.951 311.216 172.42 308.094 172.42C304.972 172.42 302.441 174.951 302.441 178.073C302.441 181.195 304.972 183.726 308.094 183.726Z" fill="#FF6584"/>
<path d="M443.764 42.3972C446.886 42.3972 449.417 39.8662 449.417 36.7441C449.417 33.622 446.886 31.0911 443.764 31.0911C440.642 31.0911 438.111 33.622 438.111 36.7441C438.111 39.8662 440.642 42.3972 443.764 42.3972Z" fill="white"/>
<path d="M1387.83 11.3059C1390.95 11.3059 1393.48 8.77493 1393.48 5.65283C1393.48 2.53072 1390.95 -0.000244141 1387.83 -0.000244141C1384.7 -0.000244141 1382.17 2.53072 1382.17 5.65283C1382.17 8.77493 1384.7 11.3059 1387.83 11.3059Z" fill="white"/>
<path d="M1077.65 105.306C1080.78 105.306 1083.31 102.775 1083.31 99.6531C1083.31 96.531 1080.78 94 1077.65 94C1074.53 94 1072 96.531 1072 99.6531C1072 102.775 1074.53 105.306 1077.65 105.306Z" fill="white"/>
<path d="M1430.22 200.683C1433.34 200.683 1435.87 198.152 1435.87 195.03C1435.87 191.908 1433.34 189.377 1430.22 189.377C1427.1 189.377 1424.57 191.908 1424.57 195.03C1424.57 198.152 1427.1 200.683 1430.22 200.683Z" fill="white"/>
<path d="M438.112 293.958C441.234 293.958 443.765 291.428 443.765 288.305C443.765 285.183 441.234 282.652 438.112 282.652C434.99 282.652 432.459 285.183 432.459 288.305C432.459 291.428 434.99 293.958 438.112 293.958Z" fill="white"/>
<path d="M5.65308 276.998C8.77518 276.998 11.3062 274.467 11.3062 271.345C11.3062 268.223 8.77518 265.692 5.65308 265.692C2.53097 265.692 0 268.223 0 271.345C0 274.467 2.53097 276.998 5.65308 276.998Z" fill="#FF6584"/>
<path d="M217.752 336.603L212.422 337.066L211.218 342.281L209.126 337.355L203.795 337.821L207.834 334.31L205.743 329.384L210.33 332.14L214.369 328.629L213.165 333.844L217.752 336.603Z" fill="white"/>
<path d="M898.954 36.9911L893.623 37.4547L892.419 42.6696L890.327 37.743L884.996 38.2094L889.035 34.6988L886.944 29.7721L891.531 32.528L895.57 29.0175L894.366 34.2324L898.954 36.9911Z" fill="white"/>
<path d="M1221.17 265.94L1215.84 266.404L1214.63 271.619L1212.54 266.692L1207.21 267.158L1211.25 263.648L1209.16 258.721L1213.75 261.477L1217.78 257.967L1216.58 263.182L1221.17 265.94Z" fill="white"/>
<path d="M621.951 200.929L616.62 201.393L615.416 206.607L613.324 201.681L607.993 202.147L612.032 198.637L609.941 193.71L614.528 196.466L618.567 192.955L617.363 198.17L621.951 200.929Z" fill="white"/>
<path d="M370.386 452.491L365.055 452.955L363.851 458.17L361.759 453.243L356.428 453.71L360.467 450.199L358.376 445.273L362.963 448.028L367.002 444.518L365.798 449.733L370.386 452.491Z" fill="white"/>
<path d="M1436 446.841L1430.67 447.304L1429.46 452.519L1427.37 447.592L1422.04 448.059L1426.08 444.548L1423.99 439.622L1428.58 442.378L1432.62 438.867L1431.41 444.082L1436 446.841Z" fill="white"/>
<path d="M67.9482 118.96L62.6173 119.423L61.4132 124.638L59.3216 119.711L53.9907 120.178L58.0298 116.667L55.9382 111.741L60.5257 114.496L64.5648 110.986L63.3607 116.201L67.9482 118.96Z" fill="white"/>
</svg>
